<svg width="20" height="20" viewBox="0 0 20 20" fill="none" xmlns="http://www.w3.org/2000/svg">
<path fill-rule="evenodd" clip-rule="evenodd" d="M3.25 9.16667C3.25 5.89898 5.89898 3.25 9.16667 3.25C12.4344 3.25 15.0833 5.89898 15.0833 9.16667C15.0833 10.763 14.4512 12.2116 13.4235 13.2759C13.3961 13.2967 13.3697 13.3196 13.3447 13.3446C13.3197 13.3696 13.2968 13.396 13.276 13.4234C12.2117 14.4511 10.763 15.0833 9.16667 15.0833C5.89898 15.0833 3.25 12.4344 3.25 9.16667ZM13.8541 14.9146C12.5765 15.9577 10.9446 16.5833 9.16667 16.5833C5.07055 16.5833 1.75 13.2628 1.75 9.16667C1.75 5.07055 5.07055 1.75 9.16667 1.75C13.2628 1.75 16.5833 5.07055 16.5833 9.16667C16.5833 10.9446 15.9578 12.5764 14.9147 13.8539L18.0304 16.9696C18.3233 17.2625 18.3233 17.7374 18.0304 18.0303C17.7375 18.3231 17.2626 18.3231 16.9697 18.0303L13.8541 14.9146Z" fill="#0D1636"/>
</svg>
